<mxfile host="app.diagrams.net" modified="2021-07-07T11:11:16.949Z" agent="5.0 (Windows NT 10.0; Win64; x64) AppleWebKit/537.36 (KHTML, like Gecko) Chrome/91.0.4472.114 Safari/537.36 Edg/91.0.864.59" etag="dwFWBHYULrtN8OlnR3Rc" version="14.8.4" type="github">
  <diagram id="dbFJYI5qDaaArH37SR7d" name="Page-1">
    <mxGraphModel dx="2249" dy="706" grid="1" gridSize="10" guides="1" tooltips="1" connect="1" arrows="1" fold="1" page="1" pageScale="1" pageWidth="827" pageHeight="1169" math="0" shadow="0">
      <root>
        <mxCell id="0" />
        <mxCell id="1" parent="0" />
        <mxCell id="xHLX-Aiopm4e_EO4BJzR-5" value="" style="edgeStyle=orthogonalEdgeStyle;rounded=0;orthogonalLoop=1;jettySize=auto;html=1;" parent="1" source="xHLX-Aiopm4e_EO4BJzR-3" target="xHLX-Aiopm4e_EO4BJzR-4" edge="1">
          <mxGeometry relative="1" as="geometry" />
        </mxCell>
        <mxCell id="xHLX-Aiopm4e_EO4BJzR-3" value="销售应退台账数据" style="rounded=1;whiteSpace=wrap;html=1;" parent="1" vertex="1">
          <mxGeometry x="320" y="70" width="120" height="60" as="geometry" />
        </mxCell>
        <mxCell id="xHLX-Aiopm4e_EO4BJzR-7" value="" style="edgeStyle=orthogonalEdgeStyle;rounded=0;orthogonalLoop=1;jettySize=auto;html=1;" parent="1" source="xHLX-Aiopm4e_EO4BJzR-4" target="xHLX-Aiopm4e_EO4BJzR-6" edge="1">
          <mxGeometry relative="1" as="geometry" />
        </mxCell>
        <mxCell id="xHLX-Aiopm4e_EO4BJzR-4" value="进入oms的退款单oms_refund表数据" style="whiteSpace=wrap;html=1;rounded=1;" parent="1" vertex="1">
          <mxGeometry x="320" y="210" width="120" height="60" as="geometry" />
        </mxCell>
        <mxCell id="xHLX-Aiopm4e_EO4BJzR-9" value="" style="edgeStyle=orthogonalEdgeStyle;rounded=0;orthogonalLoop=1;jettySize=auto;html=1;" parent="1" source="xHLX-Aiopm4e_EO4BJzR-6" target="xHLX-Aiopm4e_EO4BJzR-8" edge="1">
          <mxGeometry relative="1" as="geometry" />
        </mxCell>
        <mxCell id="xHLX-Aiopm4e_EO4BJzR-12" value="" style="edgeStyle=orthogonalEdgeStyle;rounded=0;orthogonalLoop=1;jettySize=auto;html=1;" parent="1" source="xHLX-Aiopm4e_EO4BJzR-6" target="xHLX-Aiopm4e_EO4BJzR-11" edge="1">
          <mxGeometry relative="1" as="geometry" />
        </mxCell>
        <mxCell id="xHLX-Aiopm4e_EO4BJzR-6" value="状态是否等于=&lt;span style=&quot;color: rgb(51 , 51 , 51) ; font-family: , &amp;#34;pingfang sc&amp;#34; , sans-serif ; font-size: 18px ; text-align: left&quot;&gt;refunded&lt;/span&gt;" style="rhombus;whiteSpace=wrap;html=1;rounded=1;" parent="1" vertex="1">
          <mxGeometry x="310" y="340" width="140" height="80" as="geometry" />
        </mxCell>
        <mxCell id="xHLX-Aiopm4e_EO4BJzR-15" value="" style="edgeStyle=orthogonalEdgeStyle;rounded=0;orthogonalLoop=1;jettySize=auto;html=1;" parent="1" source="xHLX-Aiopm4e_EO4BJzR-8" target="xHLX-Aiopm4e_EO4BJzR-14" edge="1">
          <mxGeometry relative="1" as="geometry" />
        </mxCell>
        <mxCell id="xHLX-Aiopm4e_EO4BJzR-17" value="" style="edgeStyle=orthogonalEdgeStyle;rounded=0;orthogonalLoop=1;jettySize=auto;html=1;" parent="1" source="xHLX-Aiopm4e_EO4BJzR-8" target="xHLX-Aiopm4e_EO4BJzR-16" edge="1">
          <mxGeometry relative="1" as="geometry" />
        </mxCell>
        <mxCell id="xHLX-Aiopm4e_EO4BJzR-19" value="" style="edgeStyle=orthogonalEdgeStyle;rounded=0;orthogonalLoop=1;jettySize=auto;html=1;" parent="1" source="xHLX-Aiopm4e_EO4BJzR-8" target="xHLX-Aiopm4e_EO4BJzR-18" edge="1">
          <mxGeometry relative="1" as="geometry" />
        </mxCell>
        <mxCell id="xHLX-Aiopm4e_EO4BJzR-8" value="进行读取数据创建应退台账数据" style="whiteSpace=wrap;html=1;rounded=1;" parent="1" vertex="1">
          <mxGeometry x="320" y="510" width="120" height="60" as="geometry" />
        </mxCell>
        <mxCell id="xHLX-Aiopm4e_EO4BJzR-10" value="是" style="text;html=1;strokeColor=none;fillColor=none;align=center;verticalAlign=middle;whiteSpace=wrap;rounded=0;" parent="1" vertex="1">
          <mxGeometry x="380" y="440" width="40" height="20" as="geometry" />
        </mxCell>
        <mxCell id="xHLX-Aiopm4e_EO4BJzR-11" value="结束" style="ellipse;whiteSpace=wrap;html=1;rounded=1;" parent="1" vertex="1">
          <mxGeometry x="100" y="350" width="120" height="60" as="geometry" />
        </mxCell>
        <mxCell id="xHLX-Aiopm4e_EO4BJzR-13" value="否" style="text;html=1;strokeColor=none;fillColor=none;align=center;verticalAlign=middle;whiteSpace=wrap;rounded=0;" parent="1" vertex="1">
          <mxGeometry x="240" y="350" width="40" height="20" as="geometry" />
        </mxCell>
        <mxCell id="xHLX-Aiopm4e_EO4BJzR-75" value="" style="edgeStyle=orthogonalEdgeStyle;rounded=0;orthogonalLoop=1;jettySize=auto;html=1;" parent="1" source="xHLX-Aiopm4e_EO4BJzR-14" target="xHLX-Aiopm4e_EO4BJzR-63" edge="1">
          <mxGeometry relative="1" as="geometry">
            <Array as="points">
              <mxPoint x="-250" y="740" />
              <mxPoint x="-260" y="740" />
            </Array>
          </mxGeometry>
        </mxCell>
        <mxCell id="xHLX-Aiopm4e_EO4BJzR-14" value="oms_refund_sku" style="whiteSpace=wrap;html=1;rounded=1;" parent="1" vertex="1">
          <mxGeometry x="-310" y="640" width="120" height="60" as="geometry" />
        </mxCell>
        <mxCell id="xHLX-Aiopm4e_EO4BJzR-16" value="oms_order" style="whiteSpace=wrap;html=1;rounded=1;" parent="1" vertex="1">
          <mxGeometry x="540" y="650" width="120" height="60" as="geometry" />
        </mxCell>
        <mxCell id="xHLX-Aiopm4e_EO4BJzR-51" value="" style="edgeStyle=orthogonalEdgeStyle;rounded=0;orthogonalLoop=1;jettySize=auto;html=1;" parent="1" source="xHLX-Aiopm4e_EO4BJzR-18" target="xHLX-Aiopm4e_EO4BJzR-21" edge="1">
          <mxGeometry relative="1" as="geometry">
            <Array as="points">
              <mxPoint x="380" y="760" />
              <mxPoint x="380" y="760" />
            </Array>
          </mxGeometry>
        </mxCell>
        <mxCell id="xHLX-Aiopm4e_EO4BJzR-18" value="oms_refund退款单数据表" style="whiteSpace=wrap;html=1;rounded=1;" parent="1" vertex="1">
          <mxGeometry x="320" y="650" width="120" height="60" as="geometry" />
        </mxCell>
        <mxCell id="xHLX-Aiopm4e_EO4BJzR-91" value="" style="edgeStyle=orthogonalEdgeStyle;rounded=0;orthogonalLoop=1;jettySize=auto;html=1;entryX=0.5;entryY=0;entryDx=0;entryDy=0;" parent="1" source="xHLX-Aiopm4e_EO4BJzR-20" target="xHLX-Aiopm4e_EO4BJzR-76" edge="1">
          <mxGeometry relative="1" as="geometry">
            <mxPoint x="390" y="870" as="targetPoint" />
          </mxGeometry>
        </mxCell>
        <mxCell id="xHLX-Aiopm4e_EO4BJzR-20" value="" style="shape=table;html=1;whiteSpace=wrap;startSize=0;container=1;collapsible=0;childLayout=tableLayout;" parent="1" vertex="1">
          <mxGeometry x="-100" y="750" width="980" height="40" as="geometry" />
        </mxCell>
        <mxCell id="xHLX-Aiopm4e_EO4BJzR-21" value="" style="shape=partialRectangle;html=1;whiteSpace=wrap;collapsible=0;dropTarget=0;pointerEvents=0;fillColor=none;top=0;left=0;bottom=0;right=0;points=[[0,0.5],[1,0.5]];portConstraint=eastwest;" parent="xHLX-Aiopm4e_EO4BJzR-20" vertex="1">
          <mxGeometry width="980" height="40" as="geometry" />
        </mxCell>
        <mxCell id="xHLX-Aiopm4e_EO4BJzR-22" value="refund_card_amount" style="shape=partialRectangle;html=1;whiteSpace=wrap;connectable=0;fillColor=none;top=0;left=0;bottom=0;right=0;overflow=hidden;" parent="xHLX-Aiopm4e_EO4BJzR-21" vertex="1">
          <mxGeometry width="140" height="40" as="geometry" />
        </mxCell>
        <mxCell id="xHLX-Aiopm4e_EO4BJzR-23" value="refund_wallet_amount" style="shape=partialRectangle;html=1;whiteSpace=wrap;connectable=0;fillColor=none;top=0;left=0;bottom=0;right=0;overflow=hidden;" parent="xHLX-Aiopm4e_EO4BJzR-21" vertex="1">
          <mxGeometry x="140" width="140" height="40" as="geometry" />
        </mxCell>
        <mxCell id="xHLX-Aiopm4e_EO4BJzR-57" value="tax" style="shape=partialRectangle;html=1;whiteSpace=wrap;connectable=0;fillColor=none;top=0;left=0;bottom=0;right=0;overflow=hidden;" parent="xHLX-Aiopm4e_EO4BJzR-21" vertex="1">
          <mxGeometry x="280" width="40" height="40" as="geometry" />
        </mxCell>
        <mxCell id="xHLX-Aiopm4e_EO4BJzR-56" value="shipping_tax" style="shape=partialRectangle;html=1;whiteSpace=wrap;connectable=0;fillColor=none;top=0;left=0;bottom=0;right=0;overflow=hidden;" parent="xHLX-Aiopm4e_EO4BJzR-21" vertex="1">
          <mxGeometry x="320" width="100" height="40" as="geometry" />
        </mxCell>
        <mxCell id="xHLX-Aiopm4e_EO4BJzR-24" value="shipping_fee" style="shape=partialRectangle;html=1;whiteSpace=wrap;connectable=0;fillColor=none;top=0;left=0;bottom=0;right=0;overflow=hidden;" parent="xHLX-Aiopm4e_EO4BJzR-21" vertex="1">
          <mxGeometry x="420" width="100" height="40" as="geometry" />
        </mxCell>
        <mxCell id="xHLX-Aiopm4e_EO4BJzR-61" value="shipping_tax" style="shape=partialRectangle;html=1;whiteSpace=wrap;connectable=0;fillColor=none;top=0;left=0;bottom=0;right=0;overflow=hidden;" parent="xHLX-Aiopm4e_EO4BJzR-21" vertex="1">
          <mxGeometry x="520" width="97" height="40" as="geometry" />
        </mxCell>
        <mxCell id="xHLX-Aiopm4e_EO4BJzR-60" value="新增字段other_fee" style="shape=partialRectangle;html=1;whiteSpace=wrap;connectable=0;fillColor=none;top=0;left=0;bottom=0;right=0;overflow=hidden;" parent="xHLX-Aiopm4e_EO4BJzR-21" vertex="1">
          <mxGeometry x="617" width="109" height="40" as="geometry" />
        </mxCell>
        <mxCell id="xHLX-Aiopm4e_EO4BJzR-59" value="新增字段：clearance_fee" style="shape=partialRectangle;html=1;whiteSpace=wrap;connectable=0;fillColor=none;top=0;left=0;bottom=0;right=0;overflow=hidden;" parent="xHLX-Aiopm4e_EO4BJzR-21" vertex="1">
          <mxGeometry x="726" width="136" height="40" as="geometry" />
        </mxCell>
        <mxCell id="xHLX-Aiopm4e_EO4BJzR-58" value="新增字段：service_fee" style="shape=partialRectangle;html=1;whiteSpace=wrap;connectable=0;fillColor=none;top=0;left=0;bottom=0;right=0;overflow=hidden;" parent="xHLX-Aiopm4e_EO4BJzR-21" vertex="1">
          <mxGeometry x="862" width="118" height="40" as="geometry" />
        </mxCell>
        <mxCell id="xHLX-Aiopm4e_EO4BJzR-62" value="" style="shape=table;html=1;whiteSpace=wrap;startSize=0;container=1;collapsible=0;childLayout=tableLayout;" parent="1" vertex="1">
          <mxGeometry x="-340" y="750" width="180" height="40" as="geometry" />
        </mxCell>
        <mxCell id="xHLX-Aiopm4e_EO4BJzR-63" value="" style="shape=partialRectangle;html=1;whiteSpace=wrap;collapsible=0;dropTarget=0;pointerEvents=0;fillColor=none;top=0;left=0;bottom=0;right=0;points=[[0,0.5],[1,0.5]];portConstraint=eastwest;" parent="xHLX-Aiopm4e_EO4BJzR-62" vertex="1">
          <mxGeometry width="180" height="40" as="geometry" />
        </mxCell>
        <mxCell id="xHLX-Aiopm4e_EO4BJzR-64" value="final_price" style="shape=partialRectangle;html=1;whiteSpace=wrap;connectable=0;fillColor=none;top=0;left=0;bottom=0;right=0;overflow=hidden;" parent="xHLX-Aiopm4e_EO4BJzR-63" vertex="1">
          <mxGeometry width="70" height="40" as="geometry" />
        </mxCell>
        <mxCell id="xHLX-Aiopm4e_EO4BJzR-65" value="applied_amount" style="shape=partialRectangle;html=1;whiteSpace=wrap;connectable=0;fillColor=none;top=0;left=0;bottom=0;right=0;overflow=hidden;" parent="xHLX-Aiopm4e_EO4BJzR-63" vertex="1">
          <mxGeometry x="70" width="110" height="40" as="geometry" />
        </mxCell>
        <mxCell id="xHLX-Aiopm4e_EO4BJzR-93" value="" style="edgeStyle=orthogonalEdgeStyle;rounded=0;orthogonalLoop=1;jettySize=auto;html=1;" parent="1" source="xHLX-Aiopm4e_EO4BJzR-76" target="xHLX-Aiopm4e_EO4BJzR-92" edge="1">
          <mxGeometry relative="1" as="geometry" />
        </mxCell>
        <mxCell id="xHLX-Aiopm4e_EO4BJzR-76" value="收取数据初步完整" style="shape=ext;double=1;rounded=1;whiteSpace=wrap;html=1;" parent="1" vertex="1">
          <mxGeometry x="130" y="920" width="120" height="80" as="geometry" />
        </mxCell>
        <mxCell id="xHLX-Aiopm4e_EO4BJzR-79" value="" style="endArrow=none;html=1;exitX=0.411;exitY=1.025;exitDx=0;exitDy=0;exitPerimeter=0;" parent="1" edge="1">
          <mxGeometry width="50" height="50" relative="1" as="geometry">
            <mxPoint x="-270.02" y="791" as="sourcePoint" />
            <mxPoint x="186" y="855" as="targetPoint" />
            <Array as="points">
              <mxPoint x="-272" y="855" />
            </Array>
          </mxGeometry>
        </mxCell>
        <mxCell id="xHLX-Aiopm4e_EO4BJzR-96" value="" style="edgeStyle=orthogonalEdgeStyle;rounded=0;orthogonalLoop=1;jettySize=auto;html=1;" parent="1" source="xHLX-Aiopm4e_EO4BJzR-92" target="xHLX-Aiopm4e_EO4BJzR-95" edge="1">
          <mxGeometry relative="1" as="geometry" />
        </mxCell>
        <mxCell id="xHLX-Aiopm4e_EO4BJzR-125" value="" style="edgeStyle=orthogonalEdgeStyle;rounded=0;orthogonalLoop=1;jettySize=auto;html=1;" parent="1" source="xHLX-Aiopm4e_EO4BJzR-92" target="xHLX-Aiopm4e_EO4BJzR-124" edge="1">
          <mxGeometry relative="1" as="geometry" />
        </mxCell>
        <mxCell id="xHLX-Aiopm4e_EO4BJzR-92" value="是否是线上退款单" style="rhombus;whiteSpace=wrap;html=1;" parent="1" vertex="1">
          <mxGeometry x="125" y="1030" width="130" height="70" as="geometry" />
        </mxCell>
        <mxCell id="xHLX-Aiopm4e_EO4BJzR-99" value="" style="edgeStyle=orthogonalEdgeStyle;rounded=0;orthogonalLoop=1;jettySize=auto;html=1;" parent="1" source="xHLX-Aiopm4e_EO4BJzR-95" target="xHLX-Aiopm4e_EO4BJzR-98" edge="1">
          <mxGeometry relative="1" as="geometry" />
        </mxCell>
        <mxCell id="xHLX-Aiopm4e_EO4BJzR-95" value="&lt;font color=&quot;#333333&quot; face=&quot;PingFangSC-Regular, PingFang SC, sans-serif&quot;&gt;&lt;span style=&quot;font-size: 16px&quot;&gt;有支付系统读写完毕后，补充退款单数据&lt;/span&gt;&lt;/font&gt;" style="whiteSpace=wrap;html=1;" parent="1" vertex="1">
          <mxGeometry x="130" y="1185" width="120" height="60" as="geometry" />
        </mxCell>
        <mxCell id="xHLX-Aiopm4e_EO4BJzR-97" value="是" style="text;html=1;strokeColor=none;fillColor=none;align=center;verticalAlign=middle;whiteSpace=wrap;rounded=0;" parent="1" vertex="1">
          <mxGeometry x="200" y="1120" width="40" height="20" as="geometry" />
        </mxCell>
        <mxCell id="xHLX-Aiopm4e_EO4BJzR-101" value="" style="edgeStyle=orthogonalEdgeStyle;rounded=0;orthogonalLoop=1;jettySize=auto;html=1;" parent="1" source="xHLX-Aiopm4e_EO4BJzR-98" target="xHLX-Aiopm4e_EO4BJzR-100" edge="1">
          <mxGeometry relative="1" as="geometry" />
        </mxCell>
        <mxCell id="xHLX-Aiopm4e_EO4BJzR-119" value="" style="edgeStyle=orthogonalEdgeStyle;rounded=0;orthogonalLoop=1;jettySize=auto;html=1;" parent="1" source="xHLX-Aiopm4e_EO4BJzR-98" target="xHLX-Aiopm4e_EO4BJzR-118" edge="1">
          <mxGeometry relative="1" as="geometry" />
        </mxCell>
        <mxCell id="xHLX-Aiopm4e_EO4BJzR-98" value="退款单数据是否完备" style="rhombus;whiteSpace=wrap;html=1;" parent="1" vertex="1">
          <mxGeometry x="105" y="1320" width="170" height="70" as="geometry" />
        </mxCell>
        <mxCell id="xHLX-Aiopm4e_EO4BJzR-104" value="" style="edgeStyle=orthogonalEdgeStyle;rounded=0;orthogonalLoop=1;jettySize=auto;html=1;" parent="1" source="xHLX-Aiopm4e_EO4BJzR-100" target="xHLX-Aiopm4e_EO4BJzR-103" edge="1">
          <mxGeometry relative="1" as="geometry" />
        </mxCell>
        <mxCell id="xHLX-Aiopm4e_EO4BJzR-100" value="数据推送到财务数据中台" style="whiteSpace=wrap;html=1;" parent="1" vertex="1">
          <mxGeometry x="130" y="1475" width="120" height="60" as="geometry" />
        </mxCell>
        <mxCell id="xHLX-Aiopm4e_EO4BJzR-102" value="是" style="text;html=1;strokeColor=none;fillColor=none;align=center;verticalAlign=middle;whiteSpace=wrap;rounded=0;" parent="1" vertex="1">
          <mxGeometry x="190" y="1410" width="40" height="20" as="geometry" />
        </mxCell>
        <mxCell id="xHLX-Aiopm4e_EO4BJzR-106" value="" style="edgeStyle=orthogonalEdgeStyle;rounded=0;orthogonalLoop=1;jettySize=auto;html=1;" parent="1" source="xHLX-Aiopm4e_EO4BJzR-103" target="xHLX-Aiopm4e_EO4BJzR-105" edge="1">
          <mxGeometry relative="1" as="geometry" />
        </mxCell>
        <mxCell id="xHLX-Aiopm4e_EO4BJzR-111" value="" style="edgeStyle=orthogonalEdgeStyle;rounded=0;orthogonalLoop=1;jettySize=auto;html=1;" parent="1" source="xHLX-Aiopm4e_EO4BJzR-103" target="xHLX-Aiopm4e_EO4BJzR-110" edge="1">
          <mxGeometry relative="1" as="geometry" />
        </mxCell>
        <mxCell id="xHLX-Aiopm4e_EO4BJzR-103" value="成功" style="rhombus;whiteSpace=wrap;html=1;" parent="1" vertex="1">
          <mxGeometry x="150" y="1580" width="80" height="80" as="geometry" />
        </mxCell>
        <mxCell id="xHLX-Aiopm4e_EO4BJzR-108" value="" style="edgeStyle=orthogonalEdgeStyle;rounded=0;orthogonalLoop=1;jettySize=auto;html=1;" parent="1" source="xHLX-Aiopm4e_EO4BJzR-105" target="xHLX-Aiopm4e_EO4BJzR-107" edge="1">
          <mxGeometry relative="1" as="geometry" />
        </mxCell>
        <mxCell id="xHLX-Aiopm4e_EO4BJzR-105" value="改写数据状态" style="whiteSpace=wrap;html=1;" parent="1" vertex="1">
          <mxGeometry x="130" y="1750" width="120" height="60" as="geometry" />
        </mxCell>
        <mxCell id="xHLX-Aiopm4e_EO4BJzR-107" value="结束" style="ellipse;whiteSpace=wrap;html=1;" parent="1" vertex="1">
          <mxGeometry x="130" y="1890" width="120" height="60" as="geometry" />
        </mxCell>
        <mxCell id="xHLX-Aiopm4e_EO4BJzR-109" value="是" style="text;html=1;strokeColor=none;fillColor=none;align=center;verticalAlign=middle;whiteSpace=wrap;rounded=0;" parent="1" vertex="1">
          <mxGeometry x="190" y="1680" width="40" height="20" as="geometry" />
        </mxCell>
        <mxCell id="xHLX-Aiopm4e_EO4BJzR-115" value="" style="edgeStyle=orthogonalEdgeStyle;rounded=0;orthogonalLoop=1;jettySize=auto;html=1;" parent="1" source="xHLX-Aiopm4e_EO4BJzR-110" target="xHLX-Aiopm4e_EO4BJzR-114" edge="1">
          <mxGeometry relative="1" as="geometry" />
        </mxCell>
        <mxCell id="xHLX-Aiopm4e_EO4BJzR-110" value="每天定时推送脚本检查" style="whiteSpace=wrap;html=1;" parent="1" vertex="1">
          <mxGeometry x="-30" y="1590" width="120" height="60" as="geometry" />
        </mxCell>
        <mxCell id="xHLX-Aiopm4e_EO4BJzR-112" value="否" style="text;html=1;strokeColor=none;fillColor=none;align=center;verticalAlign=middle;whiteSpace=wrap;rounded=0;" parent="1" vertex="1">
          <mxGeometry x="105" y="1600" width="40" height="20" as="geometry" />
        </mxCell>
        <mxCell id="xHLX-Aiopm4e_EO4BJzR-117" value="" style="edgeStyle=orthogonalEdgeStyle;rounded=0;orthogonalLoop=1;jettySize=auto;html=1;" parent="1" source="xHLX-Aiopm4e_EO4BJzR-114" target="xHLX-Aiopm4e_EO4BJzR-116" edge="1">
          <mxGeometry relative="1" as="geometry" />
        </mxCell>
        <mxCell id="xHLX-Aiopm4e_EO4BJzR-114" value="" style="shape=waypoint;size=6;pointerEvents=1;points=[];fillColor=#ffffff;resizable=0;rotatable=0;perimeter=centerPerimeter;snapToPoint=1;" parent="1" vertex="1">
          <mxGeometry x="-110" y="1485" width="40" height="40" as="geometry" />
        </mxCell>
        <mxCell id="xHLX-Aiopm4e_EO4BJzR-116" value="" style="shape=waypoint;size=6;pointerEvents=1;points=[];fillColor=#ffffff;resizable=0;rotatable=0;perimeter=centerPerimeter;snapToPoint=1;" parent="1" vertex="1">
          <mxGeometry x="110" y="1485" width="40" height="40" as="geometry" />
        </mxCell>
        <mxCell id="xHLX-Aiopm4e_EO4BJzR-121" value="" style="edgeStyle=orthogonalEdgeStyle;rounded=0;orthogonalLoop=1;jettySize=auto;html=1;" parent="1" source="xHLX-Aiopm4e_EO4BJzR-118" target="xHLX-Aiopm4e_EO4BJzR-120" edge="1">
          <mxGeometry relative="1" as="geometry" />
        </mxCell>
        <mxCell id="xHLX-Aiopm4e_EO4BJzR-118" value="等待数据完备" style="whiteSpace=wrap;html=1;" parent="1" vertex="1">
          <mxGeometry x="-120" y="1325" width="120" height="60" as="geometry" />
        </mxCell>
        <mxCell id="xHLX-Aiopm4e_EO4BJzR-123" value="" style="edgeStyle=orthogonalEdgeStyle;rounded=0;orthogonalLoop=1;jettySize=auto;html=1;" parent="1" source="xHLX-Aiopm4e_EO4BJzR-120" target="xHLX-Aiopm4e_EO4BJzR-122" edge="1">
          <mxGeometry relative="1" as="geometry" />
        </mxCell>
        <mxCell id="xHLX-Aiopm4e_EO4BJzR-120" value="" style="shape=waypoint;size=6;pointerEvents=1;points=[];fillColor=#ffffff;resizable=0;rotatable=0;perimeter=centerPerimeter;snapToPoint=1;" parent="1" vertex="1">
          <mxGeometry x="-180" y="1200" width="40" height="40" as="geometry" />
        </mxCell>
        <mxCell id="xHLX-Aiopm4e_EO4BJzR-122" value="" style="shape=waypoint;size=6;pointerEvents=1;points=[];fillColor=#ffffff;resizable=0;rotatable=0;perimeter=centerPerimeter;snapToPoint=1;" parent="1" vertex="1">
          <mxGeometry x="105" y="1200" width="40" height="40" as="geometry" />
        </mxCell>
        <mxCell id="xHLX-Aiopm4e_EO4BJzR-128" value="" style="edgeStyle=orthogonalEdgeStyle;rounded=0;orthogonalLoop=1;jettySize=auto;html=1;" parent="1" source="xHLX-Aiopm4e_EO4BJzR-124" target="xHLX-Aiopm4e_EO4BJzR-127" edge="1">
          <mxGeometry relative="1" as="geometry" />
        </mxCell>
        <mxCell id="xHLX-Aiopm4e_EO4BJzR-124" value="&lt;span style=&quot;color: rgb(51 , 51 , 51) ; font-family: , &amp;#34;pingfang sc&amp;#34; , sans-serif ; font-size: 16px&quot;&gt;线下退款&lt;/span&gt;" style="whiteSpace=wrap;html=1;" parent="1" vertex="1">
          <mxGeometry x="340" y="1035" width="120" height="60" as="geometry" />
        </mxCell>
        <mxCell id="xHLX-Aiopm4e_EO4BJzR-126" value="否" style="text;html=1;strokeColor=none;fillColor=none;align=center;verticalAlign=middle;whiteSpace=wrap;rounded=0;" parent="1" vertex="1">
          <mxGeometry x="240" y="1050" width="100" height="20" as="geometry" />
        </mxCell>
        <mxCell id="xHLX-Aiopm4e_EO4BJzR-130" value="" style="edgeStyle=orthogonalEdgeStyle;rounded=0;orthogonalLoop=1;jettySize=auto;html=1;" parent="1" source="xHLX-Aiopm4e_EO4BJzR-127" target="xHLX-Aiopm4e_EO4BJzR-129" edge="1">
          <mxGeometry relative="1" as="geometry" />
        </mxCell>
        <mxCell id="xHLX-Aiopm4e_EO4BJzR-127" value="&lt;span style=&quot;color: rgb(51 , 51 , 51) ; font-family: , &amp;#34;pingfang sc&amp;#34; , sans-serif ; font-size: 16px&quot;&gt;OC执行退款时进行退款数据补充&lt;/span&gt;" style="whiteSpace=wrap;html=1;" parent="1" vertex="1">
          <mxGeometry x="540" y="1035" width="120" height="60" as="geometry" />
        </mxCell>
        <mxCell id="xHLX-Aiopm4e_EO4BJzR-132" value="" style="edgeStyle=orthogonalEdgeStyle;rounded=0;orthogonalLoop=1;jettySize=auto;html=1;" parent="1" source="xHLX-Aiopm4e_EO4BJzR-129" target="xHLX-Aiopm4e_EO4BJzR-131" edge="1">
          <mxGeometry relative="1" as="geometry" />
        </mxCell>
        <mxCell id="xHLX-Aiopm4e_EO4BJzR-129" value="" style="shape=waypoint;size=6;pointerEvents=1;points=[];fillColor=#ffffff;resizable=0;rotatable=0;perimeter=centerPerimeter;snapToPoint=1;" parent="1" vertex="1">
          <mxGeometry x="580" y="1335" width="40" height="40" as="geometry" />
        </mxCell>
        <mxCell id="xHLX-Aiopm4e_EO4BJzR-131" value="" style="shape=waypoint;size=6;pointerEvents=1;points=[];fillColor=#ffffff;resizable=0;rotatable=0;perimeter=centerPerimeter;snapToPoint=1;" parent="1" vertex="1">
          <mxGeometry x="255" y="1335" width="40" height="40" as="geometry" />
        </mxCell>
      </root>
    </mxGraphModel>
  </diagram>
</mxfile>
